<?xml version="1.0" standalone="no"?>
<!DOCTYPE svg PUBLIC "-//W3C//DTD SVG 20010904//EN"
 "http://www.w3.org/TR/2001/REC-SVG-20010904/DTD/svg10.dtd">
<svg version="1.0" xmlns="http://www.w3.org/2000/svg"
 width="700.000000pt" height="700.000000pt" viewBox="0 0 700.000000 700.000000"
 preserveAspectRatio="xMidYMid meet">
<metadata>
Created by potrace 1.11, written by Peter Selinger 2001-2013
</metadata>
<g transform="translate(0.000000,700.000000) scale(0.100000,-0.100000)"
fill="#000000" stroke="none">
<path d="M4795 6991 c-39 -17 -751 -322 -780 -336 -198 -90 -433 -184 -448
-179 -33 11 -114 6 -149 -9 -44 -18 -105 -72 -124 -109 -8 -15 -39 -101 -70
-191 -30 -89 -90 -265 -134 -392 -43 -126 -97 -284 -120 -350 -72 -205 -48
-311 85 -390 l45 -26 -29 -25 c-60 -50 -62 -127 -6 -205 l36 -50 -27 -22
c-186 -148 -357 -278 -361 -274 -2 3 -18 60 -34 126 -72 302 -216 477 -459
557 -51 17 -112 18 -840 20 -877 2 -856 4 -997 -66 -171 -85 -299 -249 -333
-432 -6 -29 -13 -215 -16 -413 -7 -480 -14 -460 211 -620 74 -53 135 -98 135
-100 0 -3 -9 -19 -20 -37 -11 -18 -32 -69 -47 -113 -21 -66 -27 -103 -29 -205
-5 -199 36 -358 138 -536 56 -99 94 -149 183 -242 l60 -64 1 -1031 1 -1032 26
-55 c105 -219 391 -254 533 -66 69 90 66 43 67 1037 l0 897 56 6 c87 9 111 15
185 46 38 16 71 29 72 27 5 -7 174 -311 174 -314 0 -3 18 -35 40 -73 l40 -68
5 -138 c3 -77 8 -175 10 -219 8 -161 15 -293 20 -420 3 -71 8 -166 10 -210 2
-44 7 -134 10 -200 12 -275 25 -325 103 -402 64 -63 122 -87 217 -87 68 -1 89
3 137 27 105 51 166 143 175 262 l6 73 307 307 308 308 355 -355 c369 -369
388 -385 457 -375 104 17 164 137 111 223 -10 17 -189 200 -396 407 l-378 376
0 295 c0 163 2 298 5 301 3 3 15 -23 28 -57 12 -35 32 -90 45 -123 13 -33 45
-118 71 -190 68 -184 103 -233 195 -274 156 -69 348 16 390 173 31 113 39 86
-249 854 -27 72 -47 133 -43 133 3 1 60 2 127 3 99 2 127 6 154 22 90 52 105
164 33 245 -13 15 -9 20 31 50 25 18 46 35 46 38 0 4 10 13 23 21 19 12 116
15 633 16 l612 2 -1 -167 0 -166 -62 -130 c-88 -184 -178 -371 -210 -435 -78
-158 -80 -253 -8 -361 31 -48 99 -95 157 -111 l46 -12 -455 -456 c-261 -262
-456 -464 -457 -475 0 -11 -2 -33 -3 -50 -8 -98 99 -174 196 -141 26 9 139
116 412 389 207 207 379 377 381 377 3 0 4 -46 4 -103 -1 -79 3 -112 17 -140
40 -86 163 -109 232 -45 37 34 51 79 51 155 0 156 -46 185 385 -244 312 -312
389 -383 420 -391 121 -33 224 83 178 200 -5 15 -229 246 -497 514 l-487 487
1 134 c0 98 4 143 15 166 8 18 39 82 67 142 29 61 70 146 90 190 21 44 58 123
83 175 306 646 305 643 311 709 11 125 -62 251 -176 301 -47 21 -108 27 -290
31 l-98 1 -1 32 c-2 87 -1 408 3 410 2 2 646 162 693 172 18 4 380 95 390 98
6 1 28 6 50 11 58 11 75 23 75 50 0 32 -22 42 -95 44 -33 1 -80 4 -105 6 -298
22 -693 22 -763 0 -7 -2 -34 -6 -62 -10 -27 -3 -80 -11 -117 -19 -38 -7 -68
-10 -69 -7 0 3 -1 29 -2 57 -2 53 -36 112 -76 134 -43 23 -95 22 -140 -2 -63
-34 -82 -75 -83 -183 -1 -52 -6 -88 -12 -90 -6 -2 -50 -14 -98 -28 l-88 -24 0
299 c0 164 3 298 8 298 4 1 178 2 387 4 209 1 389 6 400 11 11 4 133 74 270
155 138 81 266 157 285 167 145 83 300 179 323 201 72 67 94 192 49 278 -28
55 -92 109 -147 124 -43 12 -48 18 -174 209 -71 108 -134 201 -138 206 -11 14
-47 68 -53 80 -21 43 -427 644 -443 657 -41 32 -117 -3 -117 -55 0 -10 38 -92
83 -181 115 -221 212 -408 257 -491 38 -71 111 -210 214 -409 31 -60 56 -109
54 -111 -2 -1 -138 -83 -303 -181 l-300 -179 -950 1 -950 1 -250 152 c-137 83
-254 152 -258 154 -4 1 46 160 112 352 65 193 128 377 139 410 11 33 23 74 27
91 5 25 18 38 80 72 41 23 80 42 85 42 6 0 10 5 10 10 0 6 5 10 10 10 6 0 43
19 83 41 40 23 250 140 467 261 217 121 402 229 411 240 21 27 15 78 -12 101
-23 18 -51 21 -84 8z m-1201 -2346 c3 -9 0 -15 -9 -15 -16 0 -27 14 -18 24 10
10 21 7 27 -9z m-2929 -363 c0 -177 -2 -321 -6 -320 -3 2 -26 17 -52 33 l-48
30 4 260 c4 274 7 292 52 314 50 25 49 30 50 -317z m1448 296 c32 -43 44 -82
82 -265 l31 -153 -41 24 c-22 13 -61 31 -87 41 l-48 18 0 183 c0 176 1 184 19
184 11 0 31 -15 44 -32z m1766 -39 c31 -17 58 -33 60 -35 5 -5 5 -744 -1 -749
-3 -3 -237 -4 -521 -3 l-517 3 153 78 c83 43 260 133 391 199 265 134 310 168
339 253 10 27 17 68 17 92 0 45 -24 118 -46 142 -11 12 -8 17 24 32 20 10 39
18 41 18 2 1 29 -13 60 -30z m1537 -1035 c1 -93 -2 -171 -6 -174 -5 -3 -49 -4
-99 -2 l-92 3 3 151 3 151 85 22 c47 12 90 21 95 20 6 -1 10 -67 11 -171z
m-3051 -635 l-1 -182 -43 -16 c-95 -35 -134 -140 -83 -223 43 -70 55 -72 432
-72 218 0 337 -4 341 -11 4 -5 6 -255 7 -555 l0 -545 -241 -242 c-133 -133
-242 -241 -244 -240 -3 4 -11 133 -18 287 -5 129 -12 279 -20 435 -3 50 -7
140 -10 202 -4 99 -22 188 -45 218 -4 6 -29 51 -55 100 -26 50 -65 120 -86
157 -22 36 -39 68 -39 70 0 3 -27 54 -61 114 -33 60 -81 146 -105 190 l-44 82
0 145 0 146 28 20 c36 25 93 47 162 61 30 6 69 17 85 25 17 7 32 14 35 14 3 1
5 -81 5 -180z"/>
<path d="M1270 6383 c-40 -7 -122 -34 -163 -55 -46 -23 -78 -48 -137 -109 -59
-62 -62 -65 -93 -129 -103 -213 -63 -455 103 -621 109 -108 241 -162 394 -158
343 7 590 330 511 668 -64 268 -341 450 -615 404z"/>
<path d="M4496 6224 c-185 -44 -330 -198 -372 -396 -6 -31 -6 -146 1 -181 3
-16 14 -51 24 -78 78 -205 263 -330 479 -324 208 6 378 128 453 324 25 67 30
94 30 173 -1 87 -16 148 -59 231 -102 198 -334 302 -556 251z"/>
</g>
</svg>
